<svg id="visual" viewBox="0 0 960 540" width="960" height="540" xmlns="http://www.w3.org/2000/svg" xmlns:xlink="http://www.w3.org/1999/xlink" version="1.1"><rect x="0" y="0" width="960" height="540" fill="#ecf7ff"></rect><path d="M0 393L22.8 392.3C45.7 391.7 91.3 390.3 137 389.2C182.7 388 228.3 387 274 376.8C319.7 366.7 365.3 347.3 411.2 336.5C457 325.7 503 323.3 548.8 335C594.7 346.7 640.3 372.3 686 380.5C731.7 388.7 777.3 379.3 823 375.2C868.7 371 914.3 372 937.2 372.5L960 373L960 541L937.2 541C914.3 541 868.7 541 823 541C777.3 541 731.7 541 686 541C640.3 541 594.7 541 548.8 541C503 541 457 541 411.2 541C365.3 541 319.7 541 274 541C228.3 541 182.7 541 137 541C91.3 541 45.7 541 22.8 541L0 541Z" fill="#11324d"></path><path d="M0 426L22.8 415.7C45.7 405.3 91.3 384.7 137 385.3C182.7 386 228.3 408 274 418C319.7 428 365.3 426 411.2 416.8C457 407.7 503 391.3 548.8 392.2C594.7 393 640.3 411 686 420C731.7 429 777.3 429 823 418.2C868.7 407.3 914.3 385.7 937.2 374.8L960 364L960 541L937.2 541C914.3 541 868.7 541 823 541C777.3 541 731.7 541 686 541C640.3 541 594.7 541 548.8 541C503 541 457 541 411.2 541C365.3 541 319.7 541 274 541C228.3 541 182.7 541 137 541C91.3 541 45.7 541 22.8 541L0 541Z" fill="#405a74"></path><path d="M0 424L22.8 420.8C45.7 417.7 91.3 411.3 137 413C182.7 414.7 228.3 424.3 274 422.8C319.7 421.3 365.3 408.7 411.2 411.8C457 415 503 434 548.8 444C594.7 454 640.3 455 686 446.3C731.7 437.7 777.3 419.3 823 409.8C868.7 400.3 914.3 399.7 937.2 399.3L960 399L960 541L937.2 541C914.3 541 868.7 541 823 541C777.3 541 731.7 541 686 541C640.3 541 594.7 541 548.8 541C503 541 457 541 411.2 541C365.3 541 319.7 541 274 541C228.3 541 182.7 541 137 541C91.3 541 45.7 541 22.8 541L0 541Z" fill="#6d869e"></path><path d="M0 486L22.8 485C45.7 484 91.3 482 137 476.7C182.7 471.3 228.3 462.7 274 459.7C319.7 456.7 365.3 459.3 411.2 460C457 460.7 503 459.3 548.8 459.3C594.7 459.3 640.3 460.7 686 462.5C731.7 464.3 777.3 466.7 823 463.7C868.7 460.7 914.3 452.3 937.2 448.2L960 444L960 541L937.2 541C914.3 541 868.7 541 823 541C777.3 541 731.7 541 686 541C640.3 541 594.7 541 548.8 541C503 541 457 541 411.2 541C365.3 541 319.7 541 274 541C228.3 541 182.7 541 137 541C91.3 541 45.7 541 22.8 541L0 541Z" fill="#9db5ca"></path><path d="M0 506L22.8 502.2C45.7 498.3 91.3 490.7 137 492C182.7 493.3 228.3 503.7 274 504.2C319.7 504.7 365.3 495.3 411.2 489.7C457 484 503 482 548.8 480.5C594.7 479 640.3 478 686 482.8C731.7 487.7 777.3 498.3 823 498.5C868.7 498.7 914.3 488.3 937.2 483.2L960 478L960 541L937.2 541C914.3 541 868.7 541 823 541C777.3 541 731.7 541 686 541C640.3 541 594.7 541 548.8 541C503 541 457 541 411.2 541C365.3 541 319.7 541 274 541C228.3 541 182.7 541 137 541C91.3 541 45.7 541 22.8 541L0 541Z" fill="#cfe6f8"></path></svg>